<mxfile host="app.diagrams.net" modified="2024-05-02T13:43:10.463Z" agent="Mozilla/5.0 (Windows NT 10.0; Win64; x64) AppleWebKit/537.36 (KHTML, like Gecko) Chrome/124.0.0.0 Safari/537.36 Edg/124.0.0.0" etag="XVEixZHNlU3QrUKsyFnN" version="22.1.17" type="device">
  <diagram name="Страница — 1" id="_itFEgzWo2JTnq4dxlhc">
    <mxGraphModel dx="1042" dy="577" grid="1" gridSize="10" guides="1" tooltips="1" connect="1" arrows="1" fold="1" page="1" pageScale="1" pageWidth="827" pageHeight="1169" math="0" shadow="0">
      <root>
        <mxCell id="0" />
        <mxCell id="1" parent="0" />
        <mxCell id="XApACc8hhLjE85O1-Fh8-1" value="Начало" style="strokeWidth=1;html=1;shape=mxgraph.flowchart.terminator;whiteSpace=wrap;" parent="1" vertex="1">
          <mxGeometry x="359" y="10" width="100" height="60" as="geometry" />
        </mxCell>
        <mxCell id="XApACc8hhLjE85O1-Fh8-3" value="programIsWork = 1" style="rounded=0;whiteSpace=wrap;html=1;" parent="1" vertex="1">
          <mxGeometry x="361" y="80" width="96" height="60" as="geometry" />
        </mxCell>
        <mxCell id="XApACc8hhLjE85O1-Fh8-4" value="Выбор&lt;br&gt;programIsWork == 1" style="strokeWidth=1;html=1;shape=mxgraph.flowchart.loop_limit;whiteSpace=wrap;" parent="1" vertex="1">
          <mxGeometry x="359.5" y="150" width="100" height="60" as="geometry" />
        </mxCell>
        <mxCell id="XApACc8hhLjE85O1-Fh8-5" value="Выбор" style="strokeWidth=1;html=1;shape=mxgraph.flowchart.loop_limit;whiteSpace=wrap;direction=west;" parent="1" vertex="1">
          <mxGeometry x="362" y="760" width="100" height="60" as="geometry" />
        </mxCell>
        <mxCell id="XApACc8hhLjE85O1-Fh8-8" value="clearConsole" style="shape=process;whiteSpace=wrap;html=1;backgroundOutline=1;" parent="1" vertex="1">
          <mxGeometry x="357.5" y="220" width="105" height="60" as="geometry" />
        </mxCell>
        <mxCell id="XApACc8hhLjE85O1-Fh8-10" value="inputFirstNatural(2, BASICMENU)" style="shape=process;whiteSpace=wrap;html=1;backgroundOutline=1;fontSize=9;" parent="1" vertex="1">
          <mxGeometry x="357" y="370" width="105" height="60" as="geometry" />
        </mxCell>
        <mxCell id="XApACc8hhLjE85O1-Fh8-12" value="choice" style="rounded=0;whiteSpace=wrap;html=1;" parent="1" vertex="1">
          <mxGeometry x="362" y="290" width="96" height="60" as="geometry" />
        </mxCell>
        <mxCell id="XApACc8hhLjE85O1-Fh8-13" value="choice" style="rhombus;whiteSpace=wrap;html=1;" parent="1" vertex="1">
          <mxGeometry x="370" y="460" width="80" height="80" as="geometry" />
        </mxCell>
        <mxCell id="XApACc8hhLjE85O1-Fh8-14" value="authorization()" style="shape=process;whiteSpace=wrap;html=1;backgroundOutline=1;" parent="1" vertex="1">
          <mxGeometry x="458" y="570" width="105" height="60" as="geometry" />
        </mxCell>
        <mxCell id="XApACc8hhLjE85O1-Fh8-15" value="exiting()" style="shape=process;whiteSpace=wrap;html=1;backgroundOutline=1;" parent="1" vertex="1">
          <mxGeometry x="458" y="650" width="105" height="60" as="geometry" />
        </mxCell>
        <mxCell id="XApACc8hhLjE85O1-Fh8-16" value="Конец" style="strokeWidth=1;html=1;shape=mxgraph.flowchart.terminator;whiteSpace=wrap;" parent="1" vertex="1">
          <mxGeometry x="362" y="830" width="100" height="60" as="geometry" />
        </mxCell>
        <mxCell id="XApACc8hhLjE85O1-Fh8-19" value="" style="endArrow=none;html=1;rounded=0;entryX=0.5;entryY=1;entryDx=0;entryDy=0;entryPerimeter=0;exitX=0.5;exitY=0;exitDx=0;exitDy=0;" parent="1" source="XApACc8hhLjE85O1-Fh8-3" target="XApACc8hhLjE85O1-Fh8-1" edge="1">
          <mxGeometry width="50" height="50" relative="1" as="geometry">
            <mxPoint x="300" y="140" as="sourcePoint" />
            <mxPoint x="350" y="90" as="targetPoint" />
          </mxGeometry>
        </mxCell>
        <mxCell id="XApACc8hhLjE85O1-Fh8-20" value="" style="endArrow=none;html=1;rounded=0;entryX=0.5;entryY=1;entryDx=0;entryDy=0;exitX=0.5;exitY=0;exitDx=0;exitDy=0;exitPerimeter=0;" parent="1" source="XApACc8hhLjE85O1-Fh8-4" target="XApACc8hhLjE85O1-Fh8-3" edge="1">
          <mxGeometry width="50" height="50" relative="1" as="geometry">
            <mxPoint x="250" y="180" as="sourcePoint" />
            <mxPoint x="300" y="130" as="targetPoint" />
          </mxGeometry>
        </mxCell>
        <mxCell id="XApACc8hhLjE85O1-Fh8-21" value="" style="endArrow=none;html=1;rounded=0;entryX=0.5;entryY=1;entryDx=0;entryDy=0;entryPerimeter=0;exitX=0.5;exitY=0;exitDx=0;exitDy=0;" parent="1" source="XApACc8hhLjE85O1-Fh8-8" target="XApACc8hhLjE85O1-Fh8-4" edge="1">
          <mxGeometry width="50" height="50" relative="1" as="geometry">
            <mxPoint x="280" y="260" as="sourcePoint" />
            <mxPoint x="330" y="210" as="targetPoint" />
          </mxGeometry>
        </mxCell>
        <mxCell id="XApACc8hhLjE85O1-Fh8-22" value="" style="endArrow=none;html=1;rounded=0;entryX=0.5;entryY=1;entryDx=0;entryDy=0;exitX=0.5;exitY=0;exitDx=0;exitDy=0;" parent="1" source="XApACc8hhLjE85O1-Fh8-12" target="XApACc8hhLjE85O1-Fh8-8" edge="1">
          <mxGeometry width="50" height="50" relative="1" as="geometry">
            <mxPoint x="250" y="370" as="sourcePoint" />
            <mxPoint x="300" y="320" as="targetPoint" />
          </mxGeometry>
        </mxCell>
        <mxCell id="XApACc8hhLjE85O1-Fh8-23" value="" style="endArrow=none;html=1;rounded=0;entryX=0.5;entryY=1;entryDx=0;entryDy=0;exitX=0.5;exitY=0;exitDx=0;exitDy=0;" parent="1" source="XApACc8hhLjE85O1-Fh8-10" target="XApACc8hhLjE85O1-Fh8-12" edge="1">
          <mxGeometry width="50" height="50" relative="1" as="geometry">
            <mxPoint x="240" y="420" as="sourcePoint" />
            <mxPoint x="290" y="370" as="targetPoint" />
          </mxGeometry>
        </mxCell>
        <mxCell id="4wya9gN3tqD8T3YnfPDx-1" value="" style="endArrow=none;html=1;rounded=0;entryX=0.5;entryY=1;entryDx=0;entryDy=0;exitX=0.5;exitY=0;exitDx=0;exitDy=0;" edge="1" parent="1" source="XApACc8hhLjE85O1-Fh8-13" target="XApACc8hhLjE85O1-Fh8-10">
          <mxGeometry width="50" height="50" relative="1" as="geometry">
            <mxPoint x="510" y="490" as="sourcePoint" />
            <mxPoint x="420" y="460" as="targetPoint" />
          </mxGeometry>
        </mxCell>
        <mxCell id="4wya9gN3tqD8T3YnfPDx-2" value="" style="endArrow=none;html=1;rounded=0;entryX=0.5;entryY=1;entryDx=0;entryDy=0;exitX=0.5;exitY=1;exitDx=0;exitDy=0;exitPerimeter=0;" edge="1" parent="1" source="XApACc8hhLjE85O1-Fh8-5" target="XApACc8hhLjE85O1-Fh8-13">
          <mxGeometry width="50" height="50" relative="1" as="geometry">
            <mxPoint x="260" y="740" as="sourcePoint" />
            <mxPoint x="310" y="690" as="targetPoint" />
          </mxGeometry>
        </mxCell>
        <mxCell id="4wya9gN3tqD8T3YnfPDx-3" value="" style="endArrow=none;html=1;rounded=0;entryX=0;entryY=0.5;entryDx=0;entryDy=0;" edge="1" parent="1" target="XApACc8hhLjE85O1-Fh8-14">
          <mxGeometry width="50" height="50" relative="1" as="geometry">
            <mxPoint x="411" y="600" as="sourcePoint" />
            <mxPoint x="310" y="670" as="targetPoint" />
          </mxGeometry>
        </mxCell>
        <mxCell id="4wya9gN3tqD8T3YnfPDx-4" value="" style="endArrow=none;html=1;rounded=0;exitX=0;exitY=0.5;exitDx=0;exitDy=0;" edge="1" parent="1" source="XApACc8hhLjE85O1-Fh8-15">
          <mxGeometry width="50" height="50" relative="1" as="geometry">
            <mxPoint x="430" y="610" as="sourcePoint" />
            <mxPoint x="412" y="680" as="targetPoint" />
          </mxGeometry>
        </mxCell>
        <mxCell id="4wya9gN3tqD8T3YnfPDx-5" value="" style="endArrow=none;html=1;rounded=0;" edge="1" parent="1">
          <mxGeometry width="50" height="50" relative="1" as="geometry">
            <mxPoint x="411" y="740" as="sourcePoint" />
            <mxPoint x="600" y="740" as="targetPoint" />
          </mxGeometry>
        </mxCell>
        <mxCell id="4wya9gN3tqD8T3YnfPDx-6" value="" style="endArrow=none;html=1;rounded=0;entryX=1;entryY=0.5;entryDx=0;entryDy=0;" edge="1" parent="1" target="XApACc8hhLjE85O1-Fh8-15">
          <mxGeometry width="50" height="50" relative="1" as="geometry">
            <mxPoint x="600" y="680" as="sourcePoint" />
            <mxPoint x="610" y="750" as="targetPoint" />
          </mxGeometry>
        </mxCell>
        <mxCell id="4wya9gN3tqD8T3YnfPDx-7" value="" style="endArrow=none;html=1;rounded=0;exitX=1;exitY=0.5;exitDx=0;exitDy=0;" edge="1" parent="1" source="XApACc8hhLjE85O1-Fh8-14">
          <mxGeometry width="50" height="50" relative="1" as="geometry">
            <mxPoint x="610" y="690" as="sourcePoint" />
            <mxPoint x="600" y="600" as="targetPoint" />
          </mxGeometry>
        </mxCell>
        <mxCell id="4wya9gN3tqD8T3YnfPDx-8" value="" style="endArrow=none;html=1;rounded=0;" edge="1" parent="1">
          <mxGeometry width="50" height="50" relative="1" as="geometry">
            <mxPoint x="600" y="600" as="sourcePoint" />
            <mxPoint x="600" y="740" as="targetPoint" />
          </mxGeometry>
        </mxCell>
        <mxCell id="4wya9gN3tqD8T3YnfPDx-9" value="" style="endArrow=none;html=1;rounded=0;entryX=0.5;entryY=0;entryDx=0;entryDy=0;entryPerimeter=0;exitX=0.5;exitY=0;exitDx=0;exitDy=0;exitPerimeter=0;" edge="1" parent="1" source="XApACc8hhLjE85O1-Fh8-5" target="XApACc8hhLjE85O1-Fh8-16">
          <mxGeometry width="50" height="50" relative="1" as="geometry">
            <mxPoint x="610" y="610" as="sourcePoint" />
            <mxPoint x="610" y="750" as="targetPoint" />
          </mxGeometry>
        </mxCell>
        <mxCell id="4wya9gN3tqD8T3YnfPDx-10" value="1" style="text;html=1;strokeColor=none;fillColor=none;align=center;verticalAlign=middle;whiteSpace=wrap;rounded=0;" vertex="1" parent="1">
          <mxGeometry x="397" y="570" width="60" height="30" as="geometry" />
        </mxCell>
        <mxCell id="4wya9gN3tqD8T3YnfPDx-11" value="Начало" style="strokeWidth=1;html=1;shape=mxgraph.flowchart.terminator;whiteSpace=wrap;" vertex="1" parent="1">
          <mxGeometry x="360" y="10" width="100" height="60" as="geometry" />
        </mxCell>
        <mxCell id="4wya9gN3tqD8T3YnfPDx-12" value="2" style="text;html=1;strokeColor=none;fillColor=none;align=center;verticalAlign=middle;whiteSpace=wrap;rounded=0;" vertex="1" parent="1">
          <mxGeometry x="397" y="650" width="60" height="30" as="geometry" />
        </mxCell>
      </root>
    </mxGraphModel>
  </diagram>
</mxfile>
